<svg width="149" height="41" viewBox="0 0 149 41" fill="none" xmlns="http://www.w3.org/2000/svg">
<path d="M13.6157 21.9157V25.2979C13.6157 26.1765 14.1131 26.995 14.909 27.4162L21.1269 30.7021C21.873 31.0993 22.7684 31.0993 23.5145 30.7021L29.7324 27.4162C30.5283 26.995 31.0257 26.1765 31.0257 25.2979V21.9157L23.5145 25.8877C22.7684 26.2849 21.873 26.2849 21.1269 25.8877L13.6157 21.9157ZM21.1269 10.2889L10.6435 15.8255C9.78548 16.2828 9.78548 17.4865 10.6435 17.9438L21.1269 23.4804C21.873 23.8776 22.7684 23.8776 23.5145 23.4804L33.5129 18.1966V25.3099C33.5129 25.9719 34.0725 26.5135 34.7564 26.5135C35.4404 26.5135 36 25.9719 36 25.3099V17.5948C36 17.1494 35.7513 16.7523 35.3533 16.5356L23.5145 10.2889C23.1471 10.0992 22.7371 10 22.3207 10C21.9043 10 21.4943 10.0992 21.1269 10.2889Z" fill="#FCFCFC"/>
<path d="M54.976 20.192C54.976 20.7573 54.8427 21.2907 54.576 21.792C54.3093 22.2933 53.8827 22.704 53.296 23.024C52.7093 23.3333 51.9573 23.488 51.04 23.488H49.024V28H47.2V16.88H51.04C51.8933 16.88 52.6133 17.0293 53.2 17.328C53.7973 17.616 54.24 18.0107 54.528 18.512C54.8267 19.0133 54.976 19.5733 54.976 20.192ZM51.04 22C51.7333 22 52.2507 21.8453 52.592 21.536C52.9333 21.216 53.104 20.768 53.104 20.192C53.104 18.976 52.416 18.368 51.04 18.368H49.024V22H51.04ZM58.5396 20.464C58.8063 20.016 59.1583 19.6693 59.5956 19.424C60.0436 19.168 60.5716 19.04 61.1796 19.04V20.928H60.7156C60.001 20.928 59.457 21.1093 59.0836 21.472C58.721 21.8347 58.5396 22.464 58.5396 23.36V28H56.7156V19.184H58.5396V20.464ZM66.6803 28.144C65.8483 28.144 65.0963 27.9573 64.4243 27.584C63.7523 27.2 63.2243 26.6667 62.8403 25.984C62.4563 25.2907 62.2643 24.4907 62.2643 23.584C62.2643 22.688 62.4616 21.8933 62.8563 21.2C63.2509 20.5067 63.7896 19.9733 64.4723 19.6C65.1549 19.2267 65.9176 19.04 66.7603 19.04C67.6029 19.04 68.3656 19.2267 69.0483 19.6C69.7309 19.9733 70.2696 20.5067 70.6643 21.2C71.0589 21.8933 71.2563 22.688 71.2563 23.584C71.2563 24.48 71.0536 25.2747 70.6483 25.968C70.2429 26.6613 69.6883 27.2 68.9843 27.584C68.2909 27.9573 67.5229 28.144 66.6803 28.144ZM66.6803 26.56C67.1496 26.56 67.5869 26.448 67.9923 26.224C68.4083 26 68.7443 25.664 69.0003 25.216C69.2563 24.768 69.3843 24.224 69.3843 23.584C69.3843 22.944 69.2616 22.4053 69.0163 21.968C68.7709 21.52 68.4456 21.184 68.0403 20.96C67.6349 20.736 67.1976 20.624 66.7283 20.624C66.2589 20.624 65.8216 20.736 65.4163 20.96C65.0216 21.184 64.7069 21.52 64.4723 21.968C64.2376 22.4053 64.1203 22.944 64.1203 23.584C64.1203 24.5333 64.3603 25.2693 64.8403 25.792C65.3309 26.304 65.9443 26.56 66.6803 26.56ZM72.4514 22.416C72.4514 21.328 72.702 20.352 73.2034 19.488C73.7154 18.624 74.4034 17.952 75.2674 17.472C76.142 16.9813 77.0967 16.736 78.1314 16.736C79.3154 16.736 80.366 17.0293 81.2834 17.616C82.2114 18.192 82.8834 19.0133 83.2994 20.08H81.1074C80.8194 19.4933 80.4194 19.056 79.9074 18.768C79.3954 18.48 78.8034 18.336 78.1314 18.336C77.3954 18.336 76.7394 18.5013 76.1634 18.832C75.5874 19.1627 75.134 19.6373 74.8034 20.256C74.4834 20.8747 74.3234 21.5947 74.3234 22.416C74.3234 23.2373 74.4834 23.9573 74.8034 24.576C75.134 25.1947 75.5874 25.6747 76.1634 26.016C76.7394 26.3467 77.3954 26.512 78.1314 26.512C78.8034 26.512 79.3954 26.368 79.9074 26.08C80.4194 25.792 80.8194 25.3547 81.1074 24.768H83.2994C82.8834 25.8347 82.2114 26.656 81.2834 27.232C80.366 27.808 79.3154 28.096 78.1314 28.096C77.086 28.096 76.1314 27.856 75.2674 27.376C74.4034 26.8853 73.7154 26.208 73.2034 25.344C72.702 24.48 72.4514 23.504 72.4514 22.416ZM84.8264 23.552C84.8264 22.6667 85.0077 21.8827 85.3704 21.2C85.7437 20.5173 86.245 19.9893 86.8744 19.616C87.5144 19.232 88.2184 19.04 88.9864 19.04C89.6797 19.04 90.2824 19.1787 90.7944 19.456C91.317 19.7227 91.733 20.0587 92.0424 20.464V19.184H93.8824V28H92.0424V26.688C91.733 27.104 91.3117 27.4507 90.7784 27.728C90.245 28.0053 89.637 28.144 88.9544 28.144C88.197 28.144 87.5037 27.952 86.8744 27.568C86.245 27.1733 85.7437 26.6293 85.3704 25.936C85.0077 25.232 84.8264 24.4373 84.8264 23.552ZM92.0424 23.584C92.0424 22.976 91.9144 22.448 91.6584 22C91.413 21.552 91.0877 21.2107 90.6824 20.976C90.277 20.7413 89.8397 20.624 89.3704 20.624C88.901 20.624 88.4637 20.7413 88.0584 20.976C87.653 21.2 87.3224 21.536 87.0664 21.984C86.821 22.4213 86.6984 22.944 86.6984 23.552C86.6984 24.16 86.821 24.6933 87.0664 25.152C87.3224 25.6107 87.653 25.9627 88.0584 26.208C88.4744 26.4427 88.9117 26.56 89.3704 26.56C89.8397 26.56 90.277 26.4427 90.6824 26.208C91.0877 25.9733 91.413 25.632 91.6584 25.184C91.9144 24.7253 92.0424 24.192 92.0424 23.584ZM98.1021 20.464C98.3688 20.016 98.7208 19.6693 99.1581 19.424C99.6061 19.168 100.134 19.04 100.742 19.04V20.928H100.278C99.5635 20.928 99.0195 21.1093 98.6461 21.472C98.2835 21.8347 98.1021 22.464 98.1021 23.36V28H96.2781V19.184H98.1021V20.464ZM104.243 20.464C104.509 20.016 104.861 19.6693 105.299 19.424C105.747 19.168 106.275 19.04 106.883 19.04V20.928H106.419C105.704 20.928 105.16 21.1093 104.787 21.472C104.424 21.8347 104.243 22.464 104.243 23.36V28H102.419V19.184H104.243V20.464ZM116.639 23.376C116.639 23.7067 116.618 24.0053 116.575 24.272H109.839C109.893 24.976 110.154 25.5413 110.623 25.968C111.093 26.3947 111.669 26.608 112.351 26.608C113.333 26.608 114.026 26.1973 114.431 25.376H116.399C116.133 26.1867 115.647 26.8533 114.943 27.376C114.25 27.888 113.386 28.144 112.351 28.144C111.509 28.144 110.751 27.9573 110.079 27.584C109.418 27.2 108.895 26.6667 108.511 25.984C108.138 25.2907 107.951 24.4907 107.951 23.584C107.951 22.6773 108.133 21.8827 108.495 21.2C108.869 20.5067 109.386 19.9733 110.047 19.6C110.719 19.2267 111.487 19.04 112.351 19.04C113.183 19.04 113.925 19.2213 114.575 19.584C115.226 19.9467 115.733 20.4587 116.095 21.12C116.458 21.7707 116.639 22.5227 116.639 23.376ZM114.735 22.8C114.725 22.128 114.485 21.5893 114.015 21.184C113.546 20.7787 112.965 20.576 112.271 20.576C111.642 20.576 111.103 20.7787 110.655 21.184C110.207 21.5787 109.941 22.1173 109.855 22.8H114.735ZM119.362 18.016C119.032 18.016 118.754 17.904 118.53 17.68C118.306 17.456 118.194 17.1787 118.194 16.848C118.194 16.5173 118.306 16.24 118.53 16.016C118.754 15.792 119.032 15.68 119.362 15.68C119.682 15.68 119.954 15.792 120.178 16.016C120.402 16.24 120.514 16.5173 120.514 16.848C120.514 17.1787 120.402 17.456 120.178 17.68C119.954 17.904 119.682 18.016 119.362 18.016ZM120.258 19.184V28H118.434V19.184H120.258ZM124.477 20.464C124.744 20.016 125.096 19.6693 125.533 19.424C125.981 19.168 126.509 19.04 127.117 19.04V20.928H126.653C125.938 20.928 125.394 21.1093 125.021 21.472C124.658 21.8347 124.477 22.464 124.477 23.36V28H122.653V19.184H124.477V20.464ZM128.186 23.552C128.186 22.6667 128.367 21.8827 128.73 21.2C129.103 20.5173 129.604 19.9893 130.234 19.616C130.874 19.232 131.578 19.04 132.346 19.04C133.039 19.04 133.642 19.1787 134.154 19.456C134.676 19.7227 135.092 20.0587 135.402 20.464V19.184H137.242V28H135.402V26.688C135.092 27.104 134.671 27.4507 134.138 27.728C133.604 28.0053 132.996 28.144 132.314 28.144C131.556 28.144 130.863 27.952 130.234 27.568C129.604 27.1733 129.103 26.6293 128.73 25.936C128.367 25.232 128.186 24.4373 128.186 23.552ZM135.402 23.584C135.402 22.976 135.274 22.448 135.018 22C134.772 21.552 134.447 21.2107 134.042 20.976C133.636 20.7413 133.199 20.624 132.73 20.624C132.26 20.624 131.823 20.7413 131.418 20.976C131.012 21.2 130.682 21.536 130.426 21.984C130.18 22.4213 130.058 22.944 130.058 23.552C130.058 24.16 130.18 24.6933 130.426 25.152C130.682 25.6107 131.012 25.9627 131.418 26.208C131.834 26.4427 132.271 26.56 132.73 26.56C133.199 26.56 133.636 26.4427 134.042 26.208C134.447 25.9733 134.772 25.632 135.018 25.184C135.274 24.7253 135.402 24.192 135.402 23.584Z" fill="#FCFCFC"/>
</svg>
